<mxfile host="Electron" modified="2024-06-07T09:29:04.814Z" agent="Mozilla/5.0 (Windows NT 10.0; Win64; x64) AppleWebKit/537.36 (KHTML, like Gecko) draw.io/24.4.8 Chrome/124.0.6367.207 Electron/30.0.6 Safari/537.36" etag="Bv360eKtQ7WlzRgFplRm" version="24.4.8" type="device">
  <diagram name="第 1 页" id="s0VlP24XzbYmBsJugohL">
    <mxGraphModel dx="1195" dy="703" grid="1" gridSize="10" guides="1" tooltips="1" connect="1" arrows="1" fold="1" page="1" pageScale="1" pageWidth="827" pageHeight="1169" math="0" shadow="0">
      <root>
        <mxCell id="0" />
        <mxCell id="1" parent="0" />
        <mxCell id="eHMCPttDIqUwcjKwxC9b-1" style="edgeStyle=orthogonalEdgeStyle;rounded=0;html=1;exitX=0;exitY=0.75;exitDx=0;exitDy=0;entryX=1;entryY=0.75;entryDx=0;entryDy=0;" edge="1" parent="1" source="eHMCPttDIqUwcjKwxC9b-2" target="eHMCPttDIqUwcjKwxC9b-19">
          <mxGeometry relative="1" as="geometry">
            <Array as="points">
              <mxPoint x="490" y="143" />
              <mxPoint x="490" y="280" />
            </Array>
          </mxGeometry>
        </mxCell>
        <mxCell id="eHMCPttDIqUwcjKwxC9b-2" value="&amp;nbsp;子卡1 （通用总线模块1）" style="whiteSpace=wrap;html=1;align=left;fillColor=#fff2cc;strokeColor=#d6b656;" vertex="1" parent="1">
          <mxGeometry x="560" y="120" width="200" height="30" as="geometry" />
        </mxCell>
        <mxCell id="eHMCPttDIqUwcjKwxC9b-3" style="edgeStyle=orthogonalEdgeStyle;rounded=0;html=1;exitX=0;exitY=0.75;exitDx=0;exitDy=0;entryX=1;entryY=0.75;entryDx=0;entryDy=0;" edge="1" parent="1" source="eHMCPttDIqUwcjKwxC9b-4" target="eHMCPttDIqUwcjKwxC9b-19">
          <mxGeometry relative="1" as="geometry">
            <Array as="points">
              <mxPoint x="490" y="183" />
              <mxPoint x="490" y="280" />
            </Array>
          </mxGeometry>
        </mxCell>
        <mxCell id="eHMCPttDIqUwcjKwxC9b-4" value="&amp;nbsp;子卡2 （通用总线模块2）" style="whiteSpace=wrap;html=1;align=left;fillColor=#fff2cc;strokeColor=#d6b656;" vertex="1" parent="1">
          <mxGeometry x="560" y="160" width="200" height="30" as="geometry" />
        </mxCell>
        <mxCell id="eHMCPttDIqUwcjKwxC9b-5" style="edgeStyle=orthogonalEdgeStyle;rounded=0;html=1;exitX=0;exitY=0.75;exitDx=0;exitDy=0;entryX=1;entryY=0.75;entryDx=0;entryDy=0;" edge="1" parent="1" source="eHMCPttDIqUwcjKwxC9b-6" target="eHMCPttDIqUwcjKwxC9b-19">
          <mxGeometry relative="1" as="geometry">
            <Array as="points">
              <mxPoint x="490" y="223" />
              <mxPoint x="490" y="280" />
            </Array>
          </mxGeometry>
        </mxCell>
        <mxCell id="eHMCPttDIqUwcjKwxC9b-6" value="&amp;nbsp;子卡3 （模拟量输入接口模块1）" style="whiteSpace=wrap;html=1;align=left;fillColor=#fff2cc;strokeColor=#d6b656;" vertex="1" parent="1">
          <mxGeometry x="560" y="200" width="200" height="30" as="geometry" />
        </mxCell>
        <mxCell id="eHMCPttDIqUwcjKwxC9b-7" style="edgeStyle=orthogonalEdgeStyle;rounded=0;html=1;exitX=0;exitY=0.75;exitDx=0;exitDy=0;entryX=1;entryY=0.75;entryDx=0;entryDy=0;" edge="1" parent="1" source="eHMCPttDIqUwcjKwxC9b-8" target="eHMCPttDIqUwcjKwxC9b-19">
          <mxGeometry relative="1" as="geometry">
            <Array as="points">
              <mxPoint x="490" y="263" />
              <mxPoint x="490" y="280" />
            </Array>
          </mxGeometry>
        </mxCell>
        <mxCell id="eHMCPttDIqUwcjKwxC9b-8" value="&amp;nbsp;子卡4 （模拟量输入接口模块2）" style="whiteSpace=wrap;html=1;align=left;fillColor=#fff2cc;strokeColor=#d6b656;" vertex="1" parent="1">
          <mxGeometry x="560" y="240" width="200" height="30" as="geometry" />
        </mxCell>
        <mxCell id="eHMCPttDIqUwcjKwxC9b-9" style="edgeStyle=orthogonalEdgeStyle;rounded=0;html=1;exitX=0;exitY=0.75;exitDx=0;exitDy=0;entryX=1;entryY=0.75;entryDx=0;entryDy=0;" edge="1" parent="1" source="eHMCPttDIqUwcjKwxC9b-10" target="eHMCPttDIqUwcjKwxC9b-19">
          <mxGeometry relative="1" as="geometry">
            <Array as="points">
              <mxPoint x="490" y="303" />
              <mxPoint x="490" y="280" />
            </Array>
          </mxGeometry>
        </mxCell>
        <mxCell id="eHMCPttDIqUwcjKwxC9b-10" value="&amp;nbsp;子卡5 （模拟量输入接口模块3）" style="whiteSpace=wrap;html=1;align=left;fillColor=#fff2cc;strokeColor=#d6b656;" vertex="1" parent="1">
          <mxGeometry x="560" y="280" width="200" height="30" as="geometry" />
        </mxCell>
        <mxCell id="eHMCPttDIqUwcjKwxC9b-11" style="edgeStyle=orthogonalEdgeStyle;rounded=0;html=1;exitX=0;exitY=0.75;exitDx=0;exitDy=0;entryX=1;entryY=0.75;entryDx=0;entryDy=0;" edge="1" parent="1" source="eHMCPttDIqUwcjKwxC9b-12" target="eHMCPttDIqUwcjKwxC9b-19">
          <mxGeometry relative="1" as="geometry">
            <Array as="points">
              <mxPoint x="490" y="343" />
              <mxPoint x="490" y="280" />
            </Array>
          </mxGeometry>
        </mxCell>
        <mxCell id="eHMCPttDIqUwcjKwxC9b-12" value="&amp;nbsp;子卡6 （模拟量输入接口&lt;font color=&quot;#00cc00&quot;&gt;模块4）&lt;/font&gt;" style="whiteSpace=wrap;html=1;align=left;fillColor=#fff2cc;strokeColor=#d6b656;" vertex="1" parent="1">
          <mxGeometry x="560" y="320" width="200" height="30" as="geometry" />
        </mxCell>
        <mxCell id="eHMCPttDIqUwcjKwxC9b-13" style="edgeStyle=orthogonalEdgeStyle;html=1;exitX=1;exitY=0.5;exitDx=0;exitDy=0;entryX=0;entryY=0.25;entryDx=0;entryDy=0;fontColor=#000000;rounded=0;fillColor=#dae8fc;strokeColor=#6c8ebf;" edge="1" parent="1" source="eHMCPttDIqUwcjKwxC9b-19" target="eHMCPttDIqUwcjKwxC9b-2">
          <mxGeometry relative="1" as="geometry">
            <Array as="points">
              <mxPoint x="400" y="240" />
              <mxPoint x="400" y="128" />
            </Array>
          </mxGeometry>
        </mxCell>
        <mxCell id="eHMCPttDIqUwcjKwxC9b-14" style="edgeStyle=orthogonalEdgeStyle;rounded=0;html=1;exitX=0;exitY=0.5;exitDx=0;exitDy=0;fontSize=10;startArrow=classic;startFill=1;" edge="1" parent="1" source="eHMCPttDIqUwcjKwxC9b-19">
          <mxGeometry relative="1" as="geometry">
            <mxPoint x="120" y="230" as="targetPoint" />
          </mxGeometry>
        </mxCell>
        <mxCell id="eHMCPttDIqUwcjKwxC9b-15" style="edgeStyle=orthogonalEdgeStyle;rounded=0;html=1;entryX=1;entryY=0.5;entryDx=0;entryDy=0;fontSize=9;" edge="1" parent="1" source="eHMCPttDIqUwcjKwxC9b-19" target="eHMCPttDIqUwcjKwxC9b-59">
          <mxGeometry relative="1" as="geometry" />
        </mxCell>
        <mxCell id="eHMCPttDIqUwcjKwxC9b-16" style="edgeStyle=orthogonalEdgeStyle;rounded=0;html=1;entryX=1;entryY=0.5;entryDx=0;entryDy=0;fontSize=9;" edge="1" parent="1" source="eHMCPttDIqUwcjKwxC9b-19" target="eHMCPttDIqUwcjKwxC9b-60">
          <mxGeometry relative="1" as="geometry" />
        </mxCell>
        <mxCell id="eHMCPttDIqUwcjKwxC9b-17" style="edgeStyle=orthogonalEdgeStyle;rounded=0;html=1;entryX=1;entryY=0.5;entryDx=0;entryDy=0;fontSize=9;" edge="1" parent="1" source="eHMCPttDIqUwcjKwxC9b-19" target="eHMCPttDIqUwcjKwxC9b-57">
          <mxGeometry relative="1" as="geometry" />
        </mxCell>
        <mxCell id="eHMCPttDIqUwcjKwxC9b-18" style="edgeStyle=orthogonalEdgeStyle;rounded=0;html=1;entryX=1;entryY=0.25;entryDx=0;entryDy=0;fontSize=9;" edge="1" parent="1" source="eHMCPttDIqUwcjKwxC9b-19" target="eHMCPttDIqUwcjKwxC9b-56">
          <mxGeometry relative="1" as="geometry" />
        </mxCell>
        <mxCell id="eHMCPttDIqUwcjKwxC9b-19" value="" style="whiteSpace=wrap;html=1;" vertex="1" parent="1">
          <mxGeometry x="150" y="130" width="160" height="200" as="geometry" />
        </mxCell>
        <mxCell id="eHMCPttDIqUwcjKwxC9b-20" style="edgeStyle=orthogonalEdgeStyle;rounded=0;html=1;exitX=0.5;exitY=0;exitDx=0;exitDy=0;entryX=0.5;entryY=1;entryDx=0;entryDy=0;fontSize=10;startArrow=classic;startFill=1;" edge="1" parent="1" source="eHMCPttDIqUwcjKwxC9b-21" target="eHMCPttDIqUwcjKwxC9b-53">
          <mxGeometry relative="1" as="geometry" />
        </mxCell>
        <mxCell id="eHMCPttDIqUwcjKwxC9b-21" value="KU115" style="whiteSpace=wrap;html=1;fillColor=#dae8fc;strokeColor=#6c8ebf;" vertex="1" parent="1">
          <mxGeometry x="170" y="260" width="120" height="50" as="geometry" />
        </mxCell>
        <mxCell id="eHMCPttDIqUwcjKwxC9b-22" style="edgeStyle=orthogonalEdgeStyle;rounded=0;html=1;exitX=0;exitY=0.75;exitDx=0;exitDy=0;entryX=1;entryY=0.75;entryDx=0;entryDy=0;" edge="1" parent="1" source="eHMCPttDIqUwcjKwxC9b-23" target="eHMCPttDIqUwcjKwxC9b-19">
          <mxGeometry relative="1" as="geometry">
            <Array as="points">
              <mxPoint x="490" y="383" />
              <mxPoint x="490" y="280" />
            </Array>
          </mxGeometry>
        </mxCell>
        <mxCell id="eHMCPttDIqUwcjKwxC9b-23" value="&amp;nbsp;子卡7 （模拟量输入接口&lt;font color=&quot;#00cc00&quot;&gt;模块4&lt;/font&gt;）" style="whiteSpace=wrap;html=1;align=left;fillColor=#fff2cc;strokeColor=#d6b656;" vertex="1" parent="1">
          <mxGeometry x="560" y="360" width="200" height="30" as="geometry" />
        </mxCell>
        <mxCell id="eHMCPttDIqUwcjKwxC9b-24" style="edgeStyle=orthogonalEdgeStyle;rounded=0;html=1;exitX=0;exitY=0.75;exitDx=0;exitDy=0;entryX=1;entryY=0.75;entryDx=0;entryDy=0;" edge="1" parent="1" source="eHMCPttDIqUwcjKwxC9b-25" target="eHMCPttDIqUwcjKwxC9b-19">
          <mxGeometry relative="1" as="geometry">
            <Array as="points">
              <mxPoint x="490" y="423" />
              <mxPoint x="490" y="280" />
            </Array>
          </mxGeometry>
        </mxCell>
        <mxCell id="eHMCPttDIqUwcjKwxC9b-25" value="&amp;nbsp;子卡8 （模拟量&lt;font color=&quot;#ff8000&quot;&gt;电流&lt;/font&gt;输出模块）" style="whiteSpace=wrap;html=1;align=left;fillColor=#fff2cc;strokeColor=#d6b656;" vertex="1" parent="1">
          <mxGeometry x="560" y="400" width="200" height="30" as="geometry" />
        </mxCell>
        <mxCell id="eHMCPttDIqUwcjKwxC9b-26" style="edgeStyle=orthogonalEdgeStyle;rounded=0;html=1;exitX=0;exitY=0.75;exitDx=0;exitDy=0;entryX=1;entryY=0.75;entryDx=0;entryDy=0;" edge="1" parent="1" source="eHMCPttDIqUwcjKwxC9b-27" target="eHMCPttDIqUwcjKwxC9b-19">
          <mxGeometry relative="1" as="geometry">
            <Array as="points">
              <mxPoint x="490" y="463" />
              <mxPoint x="490" y="280" />
            </Array>
          </mxGeometry>
        </mxCell>
        <mxCell id="eHMCPttDIqUwcjKwxC9b-27" value="&amp;nbsp;子卡9 （模拟量&lt;font color=&quot;#ff8000&quot; style=&quot;border-color: var(--border-color);&quot;&gt;电流&lt;/font&gt;输出模块）" style="whiteSpace=wrap;html=1;align=left;fillColor=#fff2cc;strokeColor=#d6b656;" vertex="1" parent="1">
          <mxGeometry x="560" y="440" width="200" height="30" as="geometry" />
        </mxCell>
        <mxCell id="eHMCPttDIqUwcjKwxC9b-28" style="edgeStyle=orthogonalEdgeStyle;rounded=0;html=1;exitX=0;exitY=0.75;exitDx=0;exitDy=0;entryX=1;entryY=0.75;entryDx=0;entryDy=0;" edge="1" parent="1" source="eHMCPttDIqUwcjKwxC9b-29" target="eHMCPttDIqUwcjKwxC9b-19">
          <mxGeometry relative="1" as="geometry">
            <Array as="points">
              <mxPoint x="490" y="503" />
              <mxPoint x="490" y="280" />
            </Array>
          </mxGeometry>
        </mxCell>
        <mxCell id="eHMCPttDIqUwcjKwxC9b-29" value="&amp;nbsp;子卡10 （模拟量&lt;font color=&quot;#ff8000&quot; style=&quot;border-color: var(--border-color);&quot;&gt;电压&lt;/font&gt;输出模块）" style="whiteSpace=wrap;html=1;align=left;fillColor=#fff2cc;strokeColor=#d6b656;" vertex="1" parent="1">
          <mxGeometry x="560" y="480" width="200" height="30" as="geometry" />
        </mxCell>
        <mxCell id="eHMCPttDIqUwcjKwxC9b-30" style="edgeStyle=orthogonalEdgeStyle;rounded=0;html=1;exitX=0;exitY=0.75;exitDx=0;exitDy=0;entryX=1;entryY=0.75;entryDx=0;entryDy=0;" edge="1" parent="1" source="eHMCPttDIqUwcjKwxC9b-31" target="eHMCPttDIqUwcjKwxC9b-19">
          <mxGeometry relative="1" as="geometry">
            <Array as="points">
              <mxPoint x="490" y="543" />
              <mxPoint x="490" y="280" />
            </Array>
          </mxGeometry>
        </mxCell>
        <mxCell id="eHMCPttDIqUwcjKwxC9b-31" value="&amp;nbsp;子卡11 （模拟量&lt;font color=&quot;#ff8000&quot; style=&quot;border-color: var(--border-color);&quot;&gt;电压&lt;/font&gt;输出模块）" style="whiteSpace=wrap;html=1;align=left;fillColor=#fff2cc;strokeColor=#d6b656;" vertex="1" parent="1">
          <mxGeometry x="560" y="520" width="200" height="30" as="geometry" />
        </mxCell>
        <mxCell id="eHMCPttDIqUwcjKwxC9b-32" style="edgeStyle=orthogonalEdgeStyle;rounded=0;html=1;exitX=0;exitY=0.75;exitDx=0;exitDy=0;entryX=1;entryY=0.75;entryDx=0;entryDy=0;" edge="1" parent="1" source="eHMCPttDIqUwcjKwxC9b-33" target="eHMCPttDIqUwcjKwxC9b-19">
          <mxGeometry relative="1" as="geometry">
            <Array as="points">
              <mxPoint x="490" y="583" />
              <mxPoint x="490" y="280" />
            </Array>
          </mxGeometry>
        </mxCell>
        <mxCell id="eHMCPttDIqUwcjKwxC9b-33" value="&amp;nbsp;子卡12 （开关量&lt;font color=&quot;#00cc00&quot;&gt;输出&lt;/font&gt;接口模块）" style="whiteSpace=wrap;html=1;align=left;fillColor=#fff2cc;strokeColor=#d6b656;" vertex="1" parent="1">
          <mxGeometry x="560" y="560" width="200" height="30" as="geometry" />
        </mxCell>
        <mxCell id="eHMCPttDIqUwcjKwxC9b-34" style="edgeStyle=orthogonalEdgeStyle;rounded=0;html=1;exitX=0;exitY=0.75;exitDx=0;exitDy=0;entryX=1;entryY=0.75;entryDx=0;entryDy=0;" edge="1" parent="1" source="eHMCPttDIqUwcjKwxC9b-35" target="eHMCPttDIqUwcjKwxC9b-19">
          <mxGeometry relative="1" as="geometry">
            <Array as="points">
              <mxPoint x="490" y="623" />
              <mxPoint x="490" y="280" />
            </Array>
          </mxGeometry>
        </mxCell>
        <mxCell id="eHMCPttDIqUwcjKwxC9b-35" value="&amp;nbsp;子卡13 （开关量&lt;font color=&quot;#00cc00&quot;&gt;输出&lt;/font&gt;接口模块）" style="whiteSpace=wrap;html=1;align=left;fillColor=#fff2cc;strokeColor=#d6b656;" vertex="1" parent="1">
          <mxGeometry x="560" y="600" width="200" height="30" as="geometry" />
        </mxCell>
        <mxCell id="eHMCPttDIqUwcjKwxC9b-36" style="edgeStyle=orthogonalEdgeStyle;rounded=0;html=1;exitX=0;exitY=0.75;exitDx=0;exitDy=0;entryX=1;entryY=0.75;entryDx=0;entryDy=0;" edge="1" parent="1" source="eHMCPttDIqUwcjKwxC9b-37" target="eHMCPttDIqUwcjKwxC9b-19">
          <mxGeometry relative="1" as="geometry">
            <Array as="points">
              <mxPoint x="490" y="663" />
              <mxPoint x="490" y="280" />
            </Array>
          </mxGeometry>
        </mxCell>
        <mxCell id="eHMCPttDIqUwcjKwxC9b-37" value="&amp;nbsp;子卡14 （开关量&lt;font color=&quot;#00cc00&quot;&gt;输入&lt;/font&gt;接口模块）" style="whiteSpace=wrap;html=1;align=left;fillColor=#fff2cc;strokeColor=#d6b656;" vertex="1" parent="1">
          <mxGeometry x="560" y="640" width="200" height="30" as="geometry" />
        </mxCell>
        <mxCell id="eHMCPttDIqUwcjKwxC9b-38" value="" style="edgeStyle=none;orthogonalLoop=1;jettySize=auto;html=1;entryX=0;entryY=0.333;entryDx=0;entryDy=0;entryPerimeter=0;fillColor=#dae8fc;strokeColor=#6c8ebf;" edge="1" parent="1" target="eHMCPttDIqUwcjKwxC9b-4">
          <mxGeometry width="100" relative="1" as="geometry">
            <mxPoint x="400" y="170" as="sourcePoint" />
            <mxPoint x="480" y="170" as="targetPoint" />
            <Array as="points" />
          </mxGeometry>
        </mxCell>
        <mxCell id="eHMCPttDIqUwcjKwxC9b-39" value="" style="edgeStyle=none;orthogonalLoop=1;jettySize=auto;html=1;entryX=0;entryY=0.333;entryDx=0;entryDy=0;entryPerimeter=0;fillColor=#dae8fc;strokeColor=#6c8ebf;" edge="1" parent="1" target="eHMCPttDIqUwcjKwxC9b-6">
          <mxGeometry width="100" relative="1" as="geometry">
            <mxPoint x="400" y="210" as="sourcePoint" />
            <mxPoint x="590" y="210" as="targetPoint" />
            <Array as="points" />
          </mxGeometry>
        </mxCell>
        <mxCell id="eHMCPttDIqUwcjKwxC9b-40" value="" style="edgeStyle=none;orthogonalLoop=1;jettySize=auto;html=1;entryX=0;entryY=0.333;entryDx=0;entryDy=0;entryPerimeter=0;fillColor=#dae8fc;strokeColor=#6c8ebf;" edge="1" parent="1" target="eHMCPttDIqUwcjKwxC9b-8">
          <mxGeometry width="100" relative="1" as="geometry">
            <mxPoint x="400" y="250" as="sourcePoint" />
            <mxPoint x="590" y="250" as="targetPoint" />
            <Array as="points" />
          </mxGeometry>
        </mxCell>
        <mxCell id="eHMCPttDIqUwcjKwxC9b-41" value="" style="edgeStyle=none;orthogonalLoop=1;jettySize=auto;html=1;fillColor=#dae8fc;strokeColor=#6c8ebf;" edge="1" parent="1">
          <mxGeometry width="100" relative="1" as="geometry">
            <mxPoint x="400" y="290" as="sourcePoint" />
            <mxPoint x="560" y="290" as="targetPoint" />
            <Array as="points" />
          </mxGeometry>
        </mxCell>
        <mxCell id="eHMCPttDIqUwcjKwxC9b-42" value="" style="edgeStyle=none;orthogonalLoop=1;jettySize=auto;html=1;fillColor=#dae8fc;strokeColor=#6c8ebf;" edge="1" parent="1">
          <mxGeometry width="100" relative="1" as="geometry">
            <mxPoint x="400" y="330" as="sourcePoint" />
            <mxPoint x="560" y="330" as="targetPoint" />
            <Array as="points" />
          </mxGeometry>
        </mxCell>
        <mxCell id="eHMCPttDIqUwcjKwxC9b-43" value="" style="edgeStyle=none;orthogonalLoop=1;jettySize=auto;html=1;entryX=0;entryY=0.333;entryDx=0;entryDy=0;entryPerimeter=0;fillColor=#dae8fc;strokeColor=#6c8ebf;" edge="1" parent="1" target="eHMCPttDIqUwcjKwxC9b-23">
          <mxGeometry width="100" relative="1" as="geometry">
            <mxPoint x="400" y="370" as="sourcePoint" />
            <mxPoint x="480" y="370" as="targetPoint" />
            <Array as="points" />
          </mxGeometry>
        </mxCell>
        <mxCell id="eHMCPttDIqUwcjKwxC9b-44" value="" style="edgeStyle=none;orthogonalLoop=1;jettySize=auto;html=1;entryX=0;entryY=0.333;entryDx=0;entryDy=0;entryPerimeter=0;fillColor=#dae8fc;strokeColor=#6c8ebf;" edge="1" parent="1" target="eHMCPttDIqUwcjKwxC9b-25">
          <mxGeometry width="100" relative="1" as="geometry">
            <mxPoint x="400" y="410" as="sourcePoint" />
            <mxPoint x="480" y="410" as="targetPoint" />
            <Array as="points" />
          </mxGeometry>
        </mxCell>
        <mxCell id="eHMCPttDIqUwcjKwxC9b-45" value="" style="edgeStyle=none;orthogonalLoop=1;jettySize=auto;html=1;entryX=0;entryY=0.333;entryDx=0;entryDy=0;entryPerimeter=0;fillColor=#dae8fc;strokeColor=#6c8ebf;" edge="1" parent="1" target="eHMCPttDIqUwcjKwxC9b-27">
          <mxGeometry width="100" relative="1" as="geometry">
            <mxPoint x="400" y="450" as="sourcePoint" />
            <mxPoint x="590" y="450" as="targetPoint" />
            <Array as="points" />
          </mxGeometry>
        </mxCell>
        <mxCell id="eHMCPttDIqUwcjKwxC9b-46" value="" style="edgeStyle=none;orthogonalLoop=1;jettySize=auto;html=1;entryX=0;entryY=0.333;entryDx=0;entryDy=0;entryPerimeter=0;fillColor=#dae8fc;strokeColor=#6c8ebf;" edge="1" parent="1" target="eHMCPttDIqUwcjKwxC9b-29">
          <mxGeometry width="100" relative="1" as="geometry">
            <mxPoint x="400" y="490" as="sourcePoint" />
            <mxPoint x="480" y="490" as="targetPoint" />
            <Array as="points" />
          </mxGeometry>
        </mxCell>
        <mxCell id="eHMCPttDIqUwcjKwxC9b-47" value="" style="edgeStyle=none;orthogonalLoop=1;jettySize=auto;html=1;entryX=0;entryY=0.333;entryDx=0;entryDy=0;entryPerimeter=0;fillColor=#dae8fc;strokeColor=#6c8ebf;" edge="1" parent="1" target="eHMCPttDIqUwcjKwxC9b-31">
          <mxGeometry width="100" relative="1" as="geometry">
            <mxPoint x="400" y="530" as="sourcePoint" />
            <mxPoint x="550" y="530" as="targetPoint" />
            <Array as="points" />
          </mxGeometry>
        </mxCell>
        <mxCell id="eHMCPttDIqUwcjKwxC9b-48" value="" style="edgeStyle=none;orthogonalLoop=1;jettySize=auto;html=1;entryX=0;entryY=0.333;entryDx=0;entryDy=0;entryPerimeter=0;fillColor=#dae8fc;strokeColor=#6c8ebf;" edge="1" parent="1" target="eHMCPttDIqUwcjKwxC9b-33">
          <mxGeometry width="100" relative="1" as="geometry">
            <mxPoint x="400" y="570" as="sourcePoint" />
            <mxPoint x="480" y="570" as="targetPoint" />
            <Array as="points" />
          </mxGeometry>
        </mxCell>
        <mxCell id="eHMCPttDIqUwcjKwxC9b-49" value="" style="edgeStyle=orthogonalEdgeStyle;orthogonalLoop=1;jettySize=auto;html=1;rounded=0;entryX=0;entryY=0.333;entryDx=0;entryDy=0;entryPerimeter=0;fillColor=#dae8fc;strokeColor=#6c8ebf;" edge="1" parent="1" target="eHMCPttDIqUwcjKwxC9b-37">
          <mxGeometry width="100" relative="1" as="geometry">
            <mxPoint x="400" y="240" as="sourcePoint" />
            <mxPoint x="470" y="650" as="targetPoint" />
            <Array as="points">
              <mxPoint x="400" y="650" />
            </Array>
          </mxGeometry>
        </mxCell>
        <mxCell id="eHMCPttDIqUwcjKwxC9b-50" value="" style="edgeStyle=none;orthogonalLoop=1;jettySize=auto;html=1;entryX=0;entryY=0.333;entryDx=0;entryDy=0;entryPerimeter=0;fillColor=#dae8fc;strokeColor=#6c8ebf;" edge="1" parent="1" target="eHMCPttDIqUwcjKwxC9b-35">
          <mxGeometry width="100" relative="1" as="geometry">
            <mxPoint x="400" y="610" as="sourcePoint" />
            <mxPoint x="480" y="610" as="targetPoint" />
            <Array as="points" />
          </mxGeometry>
        </mxCell>
        <mxCell id="eHMCPttDIqUwcjKwxC9b-51" value="控制总线I2C" style="text;html=1;align=center;verticalAlign=middle;resizable=0;points=[];autosize=1;strokeColor=none;fillColor=none;" vertex="1" parent="1">
          <mxGeometry x="310" y="215" width="90" height="30" as="geometry" />
        </mxCell>
        <mxCell id="eHMCPttDIqUwcjKwxC9b-52" value="数据链路" style="text;html=1;align=center;verticalAlign=middle;resizable=0;points=[];autosize=1;strokeColor=none;fillColor=none;" vertex="1" parent="1">
          <mxGeometry x="320" y="253" width="70" height="30" as="geometry" />
        </mxCell>
        <mxCell id="eHMCPttDIqUwcjKwxC9b-53" value="7z045" style="whiteSpace=wrap;html=1;fillColor=#dae8fc;strokeColor=#6c8ebf;" vertex="1" parent="1">
          <mxGeometry x="170" y="170" width="120" height="60" as="geometry" />
        </mxCell>
        <mxCell id="eHMCPttDIqUwcjKwxC9b-54" value="SRIO x4" style="text;html=1;align=center;verticalAlign=middle;resizable=0;points=[];autosize=1;strokeColor=none;fillColor=none;fontSize=10;" vertex="1" parent="1">
          <mxGeometry x="220" y="230" width="60" height="30" as="geometry" />
        </mxCell>
        <mxCell id="eHMCPttDIqUwcjKwxC9b-55" value="FPGA配置模块" style="text;html=1;align=center;verticalAlign=middle;resizable=0;points=[];autosize=1;strokeColor=none;fillColor=none;fontSize=10;" vertex="1" parent="1">
          <mxGeometry x="185" y="130" width="90" height="30" as="geometry" />
        </mxCell>
        <mxCell id="eHMCPttDIqUwcjKwxC9b-56" value="X86" style="rounded=0;whiteSpace=wrap;html=1;fontSize=9;fillColor=#d5e8d4;strokeColor=#82b366;" vertex="1" parent="1">
          <mxGeometry x="40" y="90" width="80" height="40" as="geometry" />
        </mxCell>
        <mxCell id="eHMCPttDIqUwcjKwxC9b-57" value="ARM1" style="rounded=0;whiteSpace=wrap;html=1;fontSize=9;fillColor=#d5e8d4;strokeColor=#82b366;" vertex="1" parent="1">
          <mxGeometry x="40" y="150" width="80" height="40" as="geometry" />
        </mxCell>
        <mxCell id="eHMCPttDIqUwcjKwxC9b-58" value="ARM2" style="rounded=0;whiteSpace=wrap;html=1;fontSize=9;fillColor=#d5e8d4;strokeColor=#82b366;" vertex="1" parent="1">
          <mxGeometry x="40" y="210" width="80" height="40" as="geometry" />
        </mxCell>
        <mxCell id="eHMCPttDIqUwcjKwxC9b-59" value="PowerPC1" style="rounded=0;whiteSpace=wrap;html=1;fontSize=9;fillColor=#d5e8d4;strokeColor=#82b366;" vertex="1" parent="1">
          <mxGeometry x="40" y="270" width="80" height="40" as="geometry" />
        </mxCell>
        <mxCell id="eHMCPttDIqUwcjKwxC9b-60" value="PowerPC2" style="rounded=0;whiteSpace=wrap;html=1;fontSize=9;fillColor=#d5e8d4;strokeColor=#82b366;" vertex="1" parent="1">
          <mxGeometry x="40" y="330" width="80" height="40" as="geometry" />
        </mxCell>
        <mxCell id="eHMCPttDIqUwcjKwxC9b-61" value="0x40" style="text;html=1;align=center;verticalAlign=middle;resizable=0;points=[];autosize=1;strokeColor=none;fillColor=none;fontSize=9;" vertex="1" parent="1">
          <mxGeometry y="100" width="40" height="20" as="geometry" />
        </mxCell>
        <mxCell id="eHMCPttDIqUwcjKwxC9b-62" value="0x41" style="text;html=1;align=center;verticalAlign=middle;resizable=0;points=[];autosize=1;strokeColor=none;fillColor=none;fontSize=9;" vertex="1" parent="1">
          <mxGeometry y="160" width="40" height="20" as="geometry" />
        </mxCell>
        <mxCell id="eHMCPttDIqUwcjKwxC9b-63" value="0x42" style="text;html=1;align=center;verticalAlign=middle;resizable=0;points=[];autosize=1;strokeColor=none;fillColor=none;fontSize=9;" vertex="1" parent="1">
          <mxGeometry y="220" width="40" height="20" as="geometry" />
        </mxCell>
        <mxCell id="eHMCPttDIqUwcjKwxC9b-64" value="0x43" style="text;html=1;align=center;verticalAlign=middle;resizable=0;points=[];autosize=1;strokeColor=none;fillColor=none;fontSize=9;" vertex="1" parent="1">
          <mxGeometry y="280" width="40" height="20" as="geometry" />
        </mxCell>
        <mxCell id="eHMCPttDIqUwcjKwxC9b-65" value="0x44" style="text;html=1;align=center;verticalAlign=middle;resizable=0;points=[];autosize=1;strokeColor=none;fillColor=none;fontSize=9;" vertex="1" parent="1">
          <mxGeometry y="340" width="40" height="20" as="geometry" />
        </mxCell>
        <mxCell id="eHMCPttDIqUwcjKwxC9b-66" value="0x00" style="text;html=1;align=center;verticalAlign=middle;resizable=0;points=[];autosize=1;strokeColor=none;fillColor=none;fontSize=9;" vertex="1" parent="1">
          <mxGeometry x="210" y="110" width="40" height="20" as="geometry" />
        </mxCell>
        <mxCell id="eHMCPttDIqUwcjKwxC9b-67" value="0x10" style="text;html=1;align=center;verticalAlign=middle;resizable=0;points=[];autosize=1;strokeColor=none;fillColor=none;fontSize=9;" vertex="1" parent="1">
          <mxGeometry x="760" y="125" width="40" height="20" as="geometry" />
        </mxCell>
        <mxCell id="eHMCPttDIqUwcjKwxC9b-68" value="0x11" style="text;html=1;align=center;verticalAlign=middle;resizable=0;points=[];autosize=1;strokeColor=none;fillColor=none;fontSize=9;" vertex="1" parent="1">
          <mxGeometry x="760" y="165" width="40" height="20" as="geometry" />
        </mxCell>
        <mxCell id="eHMCPttDIqUwcjKwxC9b-69" value="0x12" style="text;html=1;align=center;verticalAlign=middle;resizable=0;points=[];autosize=1;strokeColor=none;fillColor=none;fontSize=9;" vertex="1" parent="1">
          <mxGeometry x="760" y="205" width="40" height="20" as="geometry" />
        </mxCell>
        <mxCell id="eHMCPttDIqUwcjKwxC9b-70" value="0x13" style="text;html=1;align=center;verticalAlign=middle;resizable=0;points=[];autosize=1;strokeColor=none;fillColor=none;fontSize=9;" vertex="1" parent="1">
          <mxGeometry x="760" y="245" width="40" height="20" as="geometry" />
        </mxCell>
        <mxCell id="eHMCPttDIqUwcjKwxC9b-71" value="0x14" style="text;html=1;align=center;verticalAlign=middle;resizable=0;points=[];autosize=1;strokeColor=none;fillColor=none;fontSize=9;" vertex="1" parent="1">
          <mxGeometry x="760" y="285" width="40" height="20" as="geometry" />
        </mxCell>
        <mxCell id="eHMCPttDIqUwcjKwxC9b-72" value="0x15" style="text;html=1;align=center;verticalAlign=middle;resizable=0;points=[];autosize=1;strokeColor=none;fillColor=none;fontSize=9;" vertex="1" parent="1">
          <mxGeometry x="760" y="325" width="40" height="20" as="geometry" />
        </mxCell>
        <mxCell id="eHMCPttDIqUwcjKwxC9b-73" value="0x16" style="text;html=1;align=center;verticalAlign=middle;resizable=0;points=[];autosize=1;strokeColor=none;fillColor=none;fontSize=9;" vertex="1" parent="1">
          <mxGeometry x="760" y="365" width="40" height="20" as="geometry" />
        </mxCell>
        <mxCell id="eHMCPttDIqUwcjKwxC9b-74" value="0x17" style="text;html=1;align=center;verticalAlign=middle;resizable=0;points=[];autosize=1;strokeColor=none;fillColor=none;fontSize=9;" vertex="1" parent="1">
          <mxGeometry x="760" y="405" width="40" height="20" as="geometry" />
        </mxCell>
        <mxCell id="eHMCPttDIqUwcjKwxC9b-75" value="0x18" style="text;html=1;align=center;verticalAlign=middle;resizable=0;points=[];autosize=1;strokeColor=none;fillColor=none;fontSize=9;" vertex="1" parent="1">
          <mxGeometry x="760" y="445" width="40" height="20" as="geometry" />
        </mxCell>
        <mxCell id="eHMCPttDIqUwcjKwxC9b-76" value="0x19" style="text;html=1;align=center;verticalAlign=middle;resizable=0;points=[];autosize=1;strokeColor=none;fillColor=none;fontSize=9;" vertex="1" parent="1">
          <mxGeometry x="760" y="485" width="40" height="20" as="geometry" />
        </mxCell>
        <mxCell id="eHMCPttDIqUwcjKwxC9b-77" value="0x1A" style="text;html=1;align=center;verticalAlign=middle;resizable=0;points=[];autosize=1;strokeColor=none;fillColor=none;fontSize=9;" vertex="1" parent="1">
          <mxGeometry x="760" y="525" width="40" height="20" as="geometry" />
        </mxCell>
        <mxCell id="eHMCPttDIqUwcjKwxC9b-78" value="0x1B" style="text;html=1;align=center;verticalAlign=middle;resizable=0;points=[];autosize=1;strokeColor=none;fillColor=none;fontSize=9;" vertex="1" parent="1">
          <mxGeometry x="760" y="565" width="40" height="20" as="geometry" />
        </mxCell>
        <mxCell id="eHMCPttDIqUwcjKwxC9b-79" value="0x1C" style="text;html=1;align=center;verticalAlign=middle;resizable=0;points=[];autosize=1;strokeColor=none;fillColor=none;fontSize=9;" vertex="1" parent="1">
          <mxGeometry x="760" y="605" width="40" height="20" as="geometry" />
        </mxCell>
        <mxCell id="eHMCPttDIqUwcjKwxC9b-80" value="0x1D" style="text;html=1;align=center;verticalAlign=middle;resizable=0;points=[];autosize=1;strokeColor=none;fillColor=none;fontSize=9;" vertex="1" parent="1">
          <mxGeometry x="760" y="645" width="40" height="20" as="geometry" />
        </mxCell>
        <mxCell id="eHMCPttDIqUwcjKwxC9b-81" value="SRIO x1" style="text;html=1;align=center;verticalAlign=bottom;resizable=0;points=[];autosize=1;strokeColor=none;fillColor=none;fontSize=10;" vertex="1" parent="1">
          <mxGeometry x="490" y="410" width="60" height="30" as="geometry" />
        </mxCell>
        <mxCell id="eHMCPttDIqUwcjKwxC9b-82" value="SRIO x1" style="text;html=1;align=center;verticalAlign=bottom;resizable=0;points=[];autosize=1;strokeColor=none;fillColor=none;fontSize=10;" vertex="1" parent="1">
          <mxGeometry x="490" y="490" width="60" height="30" as="geometry" />
        </mxCell>
        <mxCell id="eHMCPttDIqUwcjKwxC9b-83" value="SRIO x1" style="text;html=1;align=center;verticalAlign=bottom;resizable=0;points=[];autosize=1;strokeColor=none;fillColor=none;fontSize=10;" vertex="1" parent="1">
          <mxGeometry x="490" y="370" width="60" height="30" as="geometry" />
        </mxCell>
        <mxCell id="eHMCPttDIqUwcjKwxC9b-84" value="SRIO x1" style="text;html=1;align=center;verticalAlign=bottom;resizable=0;points=[];autosize=1;strokeColor=none;fillColor=none;fontSize=10;" vertex="1" parent="1">
          <mxGeometry x="490" y="330" width="60" height="30" as="geometry" />
        </mxCell>
        <mxCell id="eHMCPttDIqUwcjKwxC9b-85" value="SRIO x1" style="text;html=1;align=center;verticalAlign=bottom;resizable=0;points=[];autosize=1;strokeColor=none;fillColor=none;fontSize=10;" vertex="1" parent="1">
          <mxGeometry x="490" y="290" width="60" height="30" as="geometry" />
        </mxCell>
        <mxCell id="eHMCPttDIqUwcjKwxC9b-86" value="SRIO x4" style="text;html=1;align=center;verticalAlign=bottom;resizable=0;points=[];autosize=1;strokeColor=none;fillColor=none;fontSize=10;" vertex="1" parent="1">
          <mxGeometry x="490" y="253" width="60" height="30" as="geometry" />
        </mxCell>
        <mxCell id="eHMCPttDIqUwcjKwxC9b-87" value="SRIO x1" style="text;html=1;align=center;verticalAlign=bottom;resizable=0;points=[];autosize=1;strokeColor=none;fillColor=none;fontSize=10;" vertex="1" parent="1">
          <mxGeometry x="490" y="210" width="60" height="30" as="geometry" />
        </mxCell>
        <mxCell id="eHMCPttDIqUwcjKwxC9b-88" value="SRIO x4" style="text;html=1;align=center;verticalAlign=bottom;resizable=0;points=[];autosize=1;strokeColor=none;fillColor=none;fontSize=10;" vertex="1" parent="1">
          <mxGeometry x="490" y="170" width="60" height="30" as="geometry" />
        </mxCell>
        <mxCell id="eHMCPttDIqUwcjKwxC9b-89" value="SRIO x4" style="text;html=1;align=center;verticalAlign=bottom;resizable=0;points=[];autosize=1;strokeColor=none;fillColor=none;fontSize=10;" vertex="1" parent="1">
          <mxGeometry x="490" y="130" width="60" height="30" as="geometry" />
        </mxCell>
        <mxCell id="eHMCPttDIqUwcjKwxC9b-90" value="SRIO x1" style="text;html=1;align=center;verticalAlign=bottom;resizable=0;points=[];autosize=1;strokeColor=none;fillColor=none;fontSize=10;" vertex="1" parent="1">
          <mxGeometry x="490" y="450" width="60" height="30" as="geometry" />
        </mxCell>
        <mxCell id="eHMCPttDIqUwcjKwxC9b-91" value="SRIO x1" style="text;html=1;align=center;verticalAlign=bottom;resizable=0;points=[];autosize=1;strokeColor=none;fillColor=none;fontSize=10;" vertex="1" parent="1">
          <mxGeometry x="490" y="530" width="60" height="30" as="geometry" />
        </mxCell>
        <mxCell id="eHMCPttDIqUwcjKwxC9b-92" value="SRIO x1" style="text;html=1;align=center;verticalAlign=bottom;resizable=0;points=[];autosize=1;strokeColor=none;fillColor=none;fontSize=10;" vertex="1" parent="1">
          <mxGeometry x="490" y="570" width="60" height="30" as="geometry" />
        </mxCell>
        <mxCell id="eHMCPttDIqUwcjKwxC9b-93" value="SRIO x1" style="text;html=1;align=center;verticalAlign=bottom;resizable=0;points=[];autosize=1;strokeColor=none;fillColor=none;fontSize=10;" vertex="1" parent="1">
          <mxGeometry x="490" y="610" width="60" height="30" as="geometry" />
        </mxCell>
        <mxCell id="eHMCPttDIqUwcjKwxC9b-94" value="SRIO x1" style="text;html=1;align=center;verticalAlign=bottom;resizable=0;points=[];autosize=1;strokeColor=none;fillColor=none;fontSize=10;" vertex="1" parent="1">
          <mxGeometry x="490" y="650" width="60" height="30" as="geometry" />
        </mxCell>
      </root>
    </mxGraphModel>
  </diagram>
</mxfile>
